<svg width="110" height="19" viewBox="0 0 110 19" fill="none" xmlns="http://www.w3.org/2000/svg">
<path d="M8.776 3.672L6.136 10.656H11.416L8.776 3.672ZM0.976 17.664H3.088L9.568 0.48H10.144L16.672 17.664H18.808V18H11.416V17.664H14.08L11.56 10.992H5.992L3.472 17.664H6.136V18H0.976V17.664ZM19.5091 17.664H22.1731V1.248H19.5091V0.912H27.2371V1.248H24.5731V9.096H32.5651V1.248H29.9011V0.912H37.6291V1.248H34.9651V17.664H37.6291V18H29.9011V17.664H32.5651V9.432H24.5731V17.664H27.2371V18H19.5091V17.664ZM46.1354 3.672L43.4954 10.656H48.7754L46.1354 3.672ZM38.3354 17.664H40.4474L46.9274 0.48H47.5034L54.0314 17.664H56.1674V18H48.7754V17.664H51.4394L48.9194 10.992H43.3514L40.8314 17.664H43.4954V18H38.3354V17.664ZM57.9484 12.84H58.2124C58.3884 13.704 58.6124 14.432 58.8844 15.024C59.1724 15.616 59.4844 16.104 59.8204 16.488C60.1564 16.872 60.5084 17.168 60.8764 17.376C61.2444 17.584 61.6124 17.736 61.9804 17.832C62.3644 17.928 62.7244 17.984 63.0604 18C63.4124 18.016 63.7404 18.024 64.0444 18.024C64.8924 18.024 65.5884 17.896 66.1324 17.64C66.6764 17.384 67.1084 17.064 67.4284 16.68C67.7484 16.28 67.9724 15.856 68.1004 15.408C68.2284 14.944 68.2924 14.52 68.2924 14.136C68.2924 13.576 68.1884 13.096 67.9804 12.696C67.7724 12.296 67.5084 11.96 67.1884 11.688C66.8684 11.4 66.5164 11.168 66.1324 10.992C65.7644 10.816 65.4124 10.68 65.0764 10.584L62.3164 9.744C61.0204 9.344 60.0364 8.816 59.3644 8.16C58.7084 7.504 58.3804 6.624 58.3804 5.52C58.3804 4.8 58.5084 4.136 58.7644 3.528C59.0204 2.904 59.3804 2.368 59.8444 1.92C60.3084 1.472 60.8604 1.12 61.5004 0.863999C62.1564 0.607999 62.8684 0.48 63.6364 0.48C64.1964 0.48 64.6604 0.527999 65.0284 0.623999C65.4124 0.719999 65.7404 0.831999 66.0124 0.959999C66.2844 1.072 66.5244 1.176 66.7324 1.272C66.9564 1.368 67.1804 1.416 67.4044 1.416C67.6124 1.416 67.7484 1.392 67.8124 1.344C67.8924 1.28 67.9964 1.136 68.1244 0.912H68.4604V5.256H68.1724C68.0764 4.68 67.9084 4.128 67.6684 3.6C67.4444 3.056 67.1484 2.584 66.7804 2.184C66.4124 1.768 65.9644 1.44 65.4364 1.2C64.9244 0.943999 64.3244 0.816 63.6364 0.816C63.2524 0.816 62.8284 0.871999 62.3644 0.983999C61.9004 1.08 61.4684 1.256 61.0684 1.512C60.6684 1.768 60.3324 2.104 60.0604 2.52C59.8044 2.936 59.6764 3.464 59.6764 4.104C59.6764 4.616 59.7804 5.056 59.9884 5.424C60.1964 5.776 60.4604 6.08 60.7804 6.336C61.1164 6.576 61.4844 6.784 61.8844 6.96C62.3004 7.12 62.7164 7.264 63.1324 7.392L66.0364 8.304C66.3404 8.4 66.7244 8.528 67.1884 8.688C67.6524 8.848 68.1004 9.088 68.5324 9.408C68.9804 9.728 69.3564 10.152 69.6604 10.68C69.9804 11.208 70.1404 11.88 70.1404 12.696C70.1404 13.448 69.9964 14.168 69.7084 14.856C69.4364 15.528 69.0364 16.128 68.5084 16.656C67.9804 17.168 67.3404 17.584 66.5884 17.904C65.8364 18.208 64.9884 18.36 64.0444 18.36C63.7084 18.36 63.4124 18.352 63.1564 18.336C62.9004 18.336 62.6604 18.32 62.4364 18.288C62.2124 18.256 61.9884 18.216 61.7644 18.168C61.5404 18.136 61.2924 18.08 61.0204 18C60.7004 17.904 60.3564 17.792 59.9884 17.664C59.6204 17.536 59.3004 17.472 59.0284 17.472C58.7884 17.472 58.6204 17.52 58.5244 17.616C58.4444 17.712 58.3724 17.84 58.3084 18H57.9484V12.84ZM72.8763 17.664H75.5403V1.248H72.8763V0.912H80.6043V1.248H77.9403V9.096H85.9323V1.248H83.2683V0.912H90.9963V1.248H88.3323V17.664H90.9963V18H83.2683V17.664H85.9323V9.432H77.9403V17.664H80.6043V18H72.8763V17.664ZM99.5026 3.672L96.8626 10.656H102.143L99.5026 3.672ZM91.7026 17.664H93.8146L100.295 0.48H100.871L107.399 17.664H109.535V18H102.143V17.664H104.807L102.287 10.992H96.7186L94.1986 17.664H96.8626V18H91.7026V17.664Z" fill="white"/>
</svg>
